<svg width="56" height="32" viewBox="0 0 56 32" fill="none" xmlns="http://www.w3.org/2000/svg">
<path fill-rule="evenodd" clip-rule="evenodd" d="M54.1482 2.95435C54.5332 1.74505 54.1482 0.856445 52.3154 0.856445H46.2551C44.7142 0.856445 44.0038 1.62407 43.6185 2.47053C43.6185 2.47053 40.5366 9.54487 36.1707 14.1401C34.7582 15.4703 34.1161 15.8935 33.3456 15.8935C32.9605 15.8935 32.4028 15.4703 32.4028 14.2611V2.95436C32.4028 1.50319 31.9556 0.856445 30.6714 0.856445H21.148C20.1851 0.856445 19.6059 1.52996 19.6059 2.16828C19.6059 3.54395 21.7888 3.8612 22.0138 7.73097V16.1355C22.0138 17.9781 21.6604 18.3122 20.89 18.3122C18.8355 18.3122 13.8379 11.2063 10.8739 3.07523C10.2931 1.49484 9.71046 0.856445 8.16161 0.856445H2.10128C0.36976 0.856445 0.0234375 1.62407 0.0234375 2.47053C0.0234375 3.98218 2.07802 11.4798 9.58993 21.3958C14.5978 28.1677 21.6536 31.8386 28.0741 31.8386C31.9264 31.8386 32.4029 31.0233 32.4029 29.6189V24.5007C32.4029 22.8701 32.7679 22.5446 33.9878 22.5446C34.8866 22.5446 36.4275 22.9679 40.0231 26.2329C44.1321 30.1026 44.8096 31.8386 47.1209 31.8386H53.1812C54.9127 31.8386 55.7785 31.0233 55.279 29.4143C54.7325 27.8107 52.7706 25.484 50.1674 22.726C48.7549 21.154 46.6361 19.461 45.994 18.6144C45.0952 17.5262 45.352 17.0423 45.994 16.075C45.994 16.075 53.3777 6.2798 54.1482 2.95435Z" fill="#2787F5"/>
</svg>
